<?xml version="1.0" encoding="utf-8"?>
<!-- Generator: Adobe Illustrator 22.0.1, SVG Export Plug-In . SVG Version: 6.00 Build 0)  -->
<svg version="1.1" id="Camada_1" xmlns="http://www.w3.org/2000/svg" xmlns:xlink="http://www.w3.org/1999/xlink" x="0px" y="0px"
	 viewBox="0 0 909.7 179.5" style="enable-background:new 0 0 909.7 179.5;" xml:space="preserve">
<style type="text/css">
	.st0{fill:#5B5B5F;}
	.st1{fill:#363536;}
	.st2{fill:url(#SVGID_1_);}
	.st3{fill:url(#SVGID_2_);}
	.st4{fill:url(#SVGID_3_);}
</style>
<g>
	<g>
		<path class="st0" d="M339.8,125.7v1.5h-7.2V140h-1.8v-12.8h-7.2v-1.5H339.8z"/>
		<path class="st0" d="M348.9,140v-14.3h14.3v1.5h-12.5v4.8h11.9v1.5h-11.9v5.1h12.5v1.5H348.9z"/>
		<path class="st0" d="M386.6,130.2c0-0.7-0.1-1.3-0.2-1.8c-0.2-0.4-0.4-0.8-0.8-1c-0.4-0.2-0.9-0.4-1.5-0.4
			c-0.6-0.1-1.4-0.1-2.2-0.1h-4.2c-0.8,0-1.5,0-2,0.1c-0.5,0-1,0.1-1.3,0.3c-0.4,0.1-0.6,0.3-0.8,0.6c-0.2,0.3-0.3,0.6-0.4,1.1
			c-0.1,0.4-0.1,1-0.1,1.6c0,0.6,0,1.4,0,2.3c0,0.9,0,1.7,0,2.3c0,0.6,0.1,1.2,0.2,1.6c0.1,0.4,0.2,0.8,0.4,1.1
			c0.2,0.3,0.5,0.5,0.8,0.6c0.4,0.1,0.8,0.2,1.3,0.3c0.5,0,1.2,0.1,2,0.1h4.2c0.7,0,1.3,0,1.8-0.1c0.5,0,0.9-0.1,1.3-0.2
			c0.4-0.1,0.6-0.2,0.9-0.4c0.2-0.2,0.4-0.4,0.5-0.7c0.1-0.3,0.2-0.6,0.2-0.9c0-0.4,0.1-0.8,0.1-1.3h1.8c0,0.6,0,1.1-0.1,1.6
			c-0.1,0.5-0.2,0.9-0.4,1.3c-0.2,0.4-0.4,0.7-0.8,1c-0.3,0.3-0.7,0.5-1.2,0.7c-0.5,0.2-1.1,0.3-1.7,0.4c-0.7,0.1-1.5,0.1-2.3,0.1
			h-4.2c-1.1,0-2-0.1-2.8-0.2c-0.7-0.1-1.4-0.3-1.8-0.6c-0.5-0.3-0.9-0.6-1.1-1c-0.3-0.4-0.5-0.9-0.6-1.4c-0.1-0.6-0.2-1.2-0.2-1.9
			c0-0.7,0-1.5,0-2.3c0-0.8,0-1.6,0-2.3c0-0.7,0.1-1.3,0.2-1.9c0.1-0.6,0.3-1,0.6-1.4c0.3-0.4,0.6-0.8,1.1-1
			c0.5-0.3,1.1-0.5,1.8-0.6c0.7-0.1,1.7-0.2,2.8-0.2h4.2c0.9,0,1.7,0,2.3,0.1c0.7,0.1,1.2,0.2,1.7,0.4c0.5,0.2,0.9,0.4,1.2,0.6
			c0.3,0.3,0.6,0.6,0.8,0.9c0.2,0.4,0.3,0.8,0.4,1.2c0.1,0.4,0.1,0.9,0.1,1.5H386.6z"/>
		<path class="st0" d="M399.3,140h-1.8v-14.3h3.1l13.1,12.5v-12.5h1.8V140h-2.4l-13.9-12.8V140z"/>
		<path class="st0" d="M436.5,125.4c1.1,0,2,0.1,2.8,0.2c0.7,0.1,1.4,0.3,1.8,0.6c0.5,0.3,0.9,0.6,1.1,1s0.5,0.9,0.6,1.4
			c0.1,0.6,0.2,1.2,0.2,1.9c0,0.7,0,1.5,0,2.3c0,0.8,0,1.6,0,2.3c0,0.7-0.1,1.3-0.2,1.9c-0.1,0.6-0.3,1-0.6,1.4s-0.6,0.8-1.1,1
			c-0.5,0.3-1.1,0.5-1.8,0.6c-0.7,0.1-1.7,0.2-2.8,0.2h-5.4c-1.1,0-2-0.1-2.8-0.2c-0.7-0.1-1.4-0.3-1.8-0.6c-0.5-0.3-0.9-0.6-1.1-1
			c-0.3-0.4-0.5-0.9-0.6-1.4c-0.1-0.6-0.2-1.2-0.2-1.9c0-0.7,0-1.5,0-2.3c0-0.8,0-1.6,0-2.3c0-0.7,0.1-1.3,0.2-1.9
			c0.1-0.6,0.3-1,0.6-1.4c0.3-0.4,0.6-0.8,1.1-1c0.5-0.3,1.1-0.5,1.8-0.6c0.7-0.1,1.7-0.2,2.8-0.2H436.5z M436.5,138.9
			c0.8,0,1.5,0,2-0.1c0.5,0,1-0.1,1.3-0.3c0.4-0.1,0.6-0.3,0.8-0.6c0.2-0.3,0.3-0.6,0.4-1.1c0.1-0.4,0.1-1,0.2-1.6
			c0-0.6,0-1.4,0-2.3c0-0.9,0-1.7,0-2.3c0-0.6-0.1-1.2-0.2-1.6c-0.1-0.4-0.2-0.8-0.4-1.1c-0.2-0.3-0.5-0.5-0.8-0.6
			c-0.4-0.1-0.8-0.2-1.3-0.3c-0.5,0-1.2-0.1-2-0.1h-5.4c-0.8,0-1.5,0-2,0.1c-0.5,0-1,0.1-1.3,0.3c-0.4,0.1-0.6,0.3-0.8,0.6
			c-0.2,0.3-0.3,0.6-0.4,1.1c-0.1,0.4-0.1,1-0.1,1.6c0,0.6,0,1.4,0,2.3c0,0.9,0,1.7,0,2.3c0,0.6,0.1,1.2,0.2,1.6
			c0.1,0.4,0.2,0.8,0.4,1.1c0.2,0.3,0.5,0.5,0.8,0.6c0.4,0.1,0.8,0.2,1.3,0.3c0.5,0,1.2,0.1,2,0.1H436.5z"/>
		<path class="st0" d="M452.1,140v-14.3h1.8v12.8h11.3v1.5H452.1z"/>
		<path class="st0" d="M485.1,125.4c1.1,0,2,0.1,2.8,0.2c0.7,0.1,1.4,0.3,1.8,0.6c0.5,0.3,0.9,0.6,1.1,1s0.5,0.9,0.6,1.4
			c0.1,0.6,0.2,1.2,0.2,1.9c0,0.7,0,1.5,0,2.3c0,0.8,0,1.6,0,2.3c0,0.7-0.1,1.3-0.2,1.9c-0.1,0.6-0.3,1-0.6,1.4s-0.6,0.8-1.1,1
			c-0.5,0.3-1.1,0.5-1.8,0.6c-0.7,0.1-1.7,0.2-2.8,0.2h-5.4c-1.1,0-2-0.1-2.8-0.2c-0.7-0.1-1.4-0.3-1.8-0.6c-0.5-0.3-0.9-0.6-1.1-1
			c-0.3-0.4-0.5-0.9-0.6-1.4c-0.1-0.6-0.2-1.2-0.2-1.9c0-0.7,0-1.5,0-2.3c0-0.8,0-1.6,0-2.3c0-0.7,0.1-1.3,0.2-1.9
			c0.1-0.6,0.3-1,0.6-1.4c0.3-0.4,0.6-0.8,1.1-1c0.5-0.3,1.1-0.5,1.8-0.6c0.7-0.1,1.7-0.2,2.8-0.2H485.1z M485.1,138.9
			c0.8,0,1.5,0,2-0.1c0.5,0,1-0.1,1.3-0.3c0.4-0.1,0.6-0.3,0.8-0.6c0.2-0.3,0.3-0.6,0.4-1.1c0.1-0.4,0.1-1,0.2-1.6
			c0-0.6,0-1.4,0-2.3c0-0.9,0-1.7,0-2.3c0-0.6-0.1-1.2-0.2-1.6c-0.1-0.4-0.2-0.8-0.4-1.1c-0.2-0.3-0.5-0.5-0.8-0.6
			c-0.4-0.1-0.8-0.2-1.3-0.3c-0.5,0-1.2-0.1-2-0.1h-5.4c-0.8,0-1.5,0-2,0.1c-0.5,0-1,0.1-1.3,0.3c-0.4,0.1-0.6,0.3-0.8,0.6
			c-0.2,0.3-0.3,0.6-0.4,1.1c-0.1,0.4-0.1,1-0.1,1.6c0,0.6,0,1.4,0,2.3c0,0.9,0,1.7,0,2.3c0,0.6,0.1,1.2,0.2,1.6
			c0.1,0.4,0.2,0.8,0.4,1.1c0.2,0.3,0.5,0.5,0.8,0.6c0.4,0.1,0.8,0.2,1.3,0.3c0.5,0,1.2,0.1,2,0.1H485.1z"/>
		<path class="st0" d="M516.2,130.2c0-0.7-0.1-1.3-0.2-1.8s-0.4-0.8-0.8-1s-0.9-0.4-1.5-0.4c-0.6-0.1-1.4-0.1-2.3-0.1h-4.8
			c-0.8,0-1.5,0-2,0.1c-0.5,0-1,0.1-1.3,0.3s-0.6,0.3-0.8,0.6c-0.2,0.3-0.3,0.6-0.4,1.1c-0.1,0.4-0.1,1-0.1,1.6c0,0.6,0,1.4,0,2.3
			c0,0.9,0,1.7,0,2.3c0,0.6,0.1,1.2,0.2,1.6c0.1,0.4,0.2,0.8,0.4,1.1c0.2,0.3,0.5,0.5,0.8,0.6c0.4,0.1,0.8,0.2,1.3,0.3
			c0.5,0,1.2,0.1,2,0.1h4.8c0.7,0,1.3,0,1.8-0.1s0.9-0.1,1.3-0.2c0.4-0.1,0.6-0.2,0.9-0.4s0.4-0.4,0.5-0.7c0.1-0.3,0.2-0.6,0.2-0.9
			c0-0.4,0.1-0.8,0.1-1.3v-0.9H509v-1.5h9v2.4c0,0.6,0,1.1-0.1,1.6c-0.1,0.5-0.2,0.9-0.4,1.3c-0.2,0.4-0.4,0.7-0.8,1
			c-0.3,0.3-0.7,0.5-1.2,0.7c-0.5,0.2-1.1,0.3-1.7,0.4c-0.7,0.1-1.5,0.1-2.3,0.1h-4.8c-1.1,0-2-0.1-2.8-0.2
			c-0.7-0.1-1.4-0.3-1.8-0.6c-0.5-0.3-0.9-0.6-1.1-1c-0.3-0.4-0.5-0.9-0.6-1.4c-0.1-0.6-0.2-1.2-0.2-1.9c0-0.7,0-1.5,0-2.3
			c0-0.8,0-1.6,0-2.3c0-0.7,0.1-1.3,0.2-1.9c0.1-0.6,0.3-1,0.6-1.4c0.3-0.4,0.6-0.8,1.1-1c0.5-0.3,1.1-0.5,1.8-0.6
			c0.7-0.1,1.7-0.2,2.8-0.2h4.8c0.9,0,1.7,0,2.3,0.1c0.7,0.1,1.2,0.2,1.7,0.4c0.5,0.2,0.9,0.4,1.2,0.6c0.3,0.3,0.6,0.6,0.8,0.9
			c0.2,0.4,0.3,0.8,0.4,1.2c0.1,0.4,0.1,0.9,0.1,1.5H516.2z"/>
		<path class="st0" d="M527.1,125.7h1.8V140h-1.8V125.7z"/>
		<path class="st0" d="M552.5,136.8h-11.2l-1.9,3.3h-2.1l8.2-14.3h2.6l8.1,14.3h-1.9L552.5,136.8z M551.6,135.3l-4.7-8.4l-4.8,8.4
			H551.6z"/>
		<path class="st0" d="M575.2,140v-14.3h10.7c1.1,0,2,0.1,2.8,0.2c0.7,0.1,1.4,0.3,1.9,0.6c0.5,0.3,0.9,0.6,1.1,1
			c0.3,0.4,0.5,0.9,0.6,1.4c0.1,0.5,0.2,1.1,0.2,1.8c0,0.7,0,1.4,0,2.2c0,0.8,0,1.6,0,2.2c0,0.7-0.1,1.3-0.2,1.8
			c-0.1,0.5-0.3,1-0.6,1.4c-0.3,0.4-0.6,0.7-1.1,1c-0.5,0.3-1.1,0.5-1.9,0.6c-0.7,0.1-1.7,0.2-2.8,0.2H575.2z M585.9,138.6
			c0.8,0,1.5,0,2-0.1s1-0.1,1.4-0.3c0.4-0.1,0.6-0.3,0.8-0.6c0.2-0.3,0.3-0.6,0.4-1c0.1-0.4,0.1-0.9,0.2-1.5c0-0.6,0-1.3,0-2.2
			c0-0.9,0-1.6,0-2.2c0-0.6-0.1-1.1-0.2-1.5c-0.1-0.4-0.2-0.8-0.4-1c-0.2-0.3-0.5-0.4-0.8-0.6c-0.4-0.1-0.8-0.2-1.3-0.3
			c-0.5,0-1.2-0.1-2-0.1H577v11.3H585.9z"/>
		<path class="st0" d="M601.5,140v-14.3h14.3v1.5h-12.5v4.8h11.9v1.5h-11.9v5.1h12.5v1.5H601.5z"/>
		<path class="st0" d="M634.6,125.7h10.7c0.9,0,1.6,0,2.2,0.1c0.6,0.1,1.1,0.2,1.5,0.3c0.4,0.2,0.7,0.3,0.9,0.6
			c0.2,0.2,0.4,0.5,0.5,0.8c0.1,0.3,0.2,0.7,0.2,1c0,0.4,0,0.8,0,1.3c0,0.5,0,0.9,0,1.3c0,0.4-0.1,0.8-0.2,1.1
			c-0.1,0.3-0.3,0.6-0.6,0.9c-0.3,0.3-0.6,0.5-1.1,0.6c-0.5,0.2-1.1,0.3-1.9,0.4c-0.7,0.1-1.7,0.1-2.8,0.1h-7.7v5.7h-1.8V125.7z
			 M636.4,132.9h7.7c0.8,0,1.5,0,2,0c0.5,0,1-0.1,1.3-0.2c0.4-0.1,0.6-0.2,0.8-0.3s0.3-0.3,0.4-0.5c0.1-0.2,0.1-0.5,0.2-0.8
			c0-0.3,0-0.7,0-1.1c0-0.4,0-0.8,0-1c0-0.3-0.1-0.5-0.2-0.7c-0.1-0.2-0.2-0.4-0.4-0.5c-0.2-0.1-0.5-0.2-0.8-0.3
			c-0.4-0.1-0.8-0.1-1.3-0.1c-0.5,0-1.2,0-2,0h-7.7V132.9z"/>
		<path class="st0" d="M659.2,140v-14.3h14.3v1.5H661v4.8h11.9v1.5H661v5.1h12.5v1.5H659.2z"/>
		<path class="st0" d="M698.4,140h-1.8v-2.7c0-0.4,0-0.8,0-1.1c0-0.3-0.1-0.6-0.2-0.8c-0.1-0.2-0.2-0.4-0.4-0.5
			c-0.2-0.1-0.5-0.2-0.8-0.3c-0.4-0.1-0.8-0.1-1.3-0.2c-0.5,0-1.2,0-2,0h-8v5.7H682v-14.3h10.1c1.1,0,2,0,2.8,0.1
			c0.7,0.1,1.4,0.2,1.9,0.3c0.5,0.2,0.9,0.3,1.1,0.6c0.3,0.2,0.5,0.5,0.6,0.8c0.1,0.3,0.2,0.7,0.2,1c0,0.4,0,0.8,0,1.3
			c0,0.6,0,1.1-0.1,1.6c-0.1,0.4-0.2,0.8-0.4,1.1c-0.2,0.3-0.5,0.6-0.8,0.8c-0.3,0.2-0.7,0.3-1.2,0.4c0.5,0.1,0.9,0.2,1.2,0.4
			c0.3,0.2,0.5,0.4,0.7,0.7c0.2,0.3,0.3,0.7,0.3,1.1c0.1,0.4,0.1,0.9,0.1,1.4V140z M683.8,132.9h8.3c0.8,0,1.5,0,2,0
			c0.5,0,1-0.1,1.3-0.2c0.4-0.1,0.6-0.2,0.8-0.3s0.3-0.3,0.4-0.5c0.1-0.2,0.1-0.5,0.2-0.8c0-0.3,0-0.7,0-1.1c0-0.4,0-0.8,0-1
			c0-0.3-0.1-0.5-0.2-0.7c-0.1-0.2-0.2-0.4-0.4-0.5c-0.2-0.1-0.5-0.2-0.8-0.3c-0.4-0.1-0.8-0.1-1.3-0.1c-0.5,0-1.2,0-2,0h-8.3V132.9
			z"/>
		<path class="st0" d="M707.8,140v-14.3h13.7v1.5h-11.9v4.8h11.3v1.5h-11.3v6.6H707.8z"/>
		<path class="st0" d="M741.3,125.4c1.1,0,2,0.1,2.8,0.2c0.7,0.1,1.4,0.3,1.8,0.6c0.5,0.3,0.9,0.6,1.1,1s0.5,0.9,0.6,1.4
			c0.1,0.6,0.2,1.2,0.2,1.9c0,0.7,0,1.5,0,2.3c0,0.8,0,1.6,0,2.3c0,0.7-0.1,1.3-0.2,1.9c-0.1,0.6-0.3,1-0.6,1.4s-0.6,0.8-1.1,1
			c-0.5,0.3-1.1,0.5-1.8,0.6c-0.7,0.1-1.7,0.2-2.8,0.2h-5.4c-1.1,0-2-0.1-2.8-0.2c-0.7-0.1-1.4-0.3-1.8-0.6c-0.5-0.3-0.9-0.6-1.1-1
			c-0.3-0.4-0.5-0.9-0.6-1.4c-0.1-0.6-0.2-1.2-0.2-1.9c0-0.7,0-1.5,0-2.3c0-0.8,0-1.6,0-2.3c0-0.7,0.1-1.3,0.2-1.9
			c0.1-0.6,0.3-1,0.6-1.4c0.3-0.4,0.6-0.8,1.1-1c0.5-0.3,1.1-0.5,1.8-0.6c0.7-0.1,1.7-0.2,2.8-0.2H741.3z M741.3,138.9
			c0.8,0,1.5,0,2-0.1c0.5,0,1-0.1,1.3-0.3c0.4-0.1,0.6-0.3,0.8-0.6c0.2-0.3,0.3-0.6,0.4-1.1c0.1-0.4,0.1-1,0.2-1.6
			c0-0.6,0-1.4,0-2.3c0-0.9,0-1.7,0-2.3c0-0.6-0.1-1.2-0.2-1.6c-0.1-0.4-0.2-0.8-0.4-1.1c-0.2-0.3-0.5-0.5-0.8-0.6
			c-0.4-0.1-0.8-0.2-1.3-0.3c-0.5,0-1.2-0.1-2-0.1h-5.4c-0.8,0-1.5,0-2,0.1c-0.5,0-1,0.1-1.3,0.3s-0.6,0.3-0.8,0.6
			c-0.2,0.3-0.3,0.6-0.4,1.1c-0.1,0.4-0.1,1-0.1,1.6c0,0.6,0,1.4,0,2.3c0,0.9,0,1.7,0,2.3c0,0.6,0.1,1.2,0.2,1.6
			c0.1,0.4,0.2,0.8,0.4,1.1c0.2,0.3,0.5,0.5,0.8,0.6c0.4,0.1,0.8,0.2,1.3,0.3c0.5,0,1.2,0.1,2,0.1H741.3z"/>
		<path class="st0" d="M773.3,140h-1.8v-2.7c0-0.4,0-0.8,0-1.1c0-0.3-0.1-0.6-0.2-0.8c-0.1-0.2-0.2-0.4-0.4-0.5
			c-0.2-0.1-0.5-0.2-0.8-0.3c-0.4-0.1-0.8-0.1-1.3-0.2c-0.5,0-1.2,0-2,0h-8v5.7h-1.8v-14.3H767c1.1,0,2,0,2.8,0.1
			c0.7,0.1,1.4,0.2,1.9,0.3c0.5,0.2,0.9,0.3,1.1,0.6c0.3,0.2,0.5,0.5,0.6,0.8c0.1,0.3,0.2,0.7,0.2,1c0,0.4,0,0.8,0,1.3
			c0,0.6,0,1.1-0.1,1.6c-0.1,0.4-0.2,0.8-0.4,1.1c-0.2,0.3-0.5,0.6-0.8,0.8c-0.3,0.2-0.7,0.3-1.2,0.4c0.5,0.1,0.9,0.2,1.2,0.4
			c0.3,0.2,0.5,0.4,0.7,0.7c0.2,0.3,0.3,0.7,0.3,1.1c0.1,0.4,0.1,0.9,0.1,1.4V140z M758.7,132.9h8.3c0.8,0,1.5,0,2,0
			c0.5,0,1-0.1,1.3-0.2c0.4-0.1,0.6-0.2,0.8-0.3c0.2-0.1,0.3-0.3,0.4-0.5c0.1-0.2,0.1-0.5,0.2-0.8c0-0.3,0-0.7,0-1.1
			c0-0.4,0-0.8,0-1c0-0.3-0.1-0.5-0.2-0.7c-0.1-0.2-0.2-0.4-0.4-0.5c-0.2-0.1-0.5-0.2-0.8-0.3c-0.4-0.1-0.8-0.1-1.3-0.1
			c-0.5,0-1.2,0-2,0h-8.3V132.9z"/>
		<path class="st0" d="M784.5,126.9V140h-1.8v-14.3h2.9l8.3,12.5l8.3-12.5h2.9V140h-1.8v-12.9l-8.5,12.9h-1.8L784.5,126.9z"/>
		<path class="st0" d="M828.8,136.8h-11.2l-1.9,3.3h-2.1l8.2-14.3h2.6l8.1,14.3h-1.9L828.8,136.8z M827.9,135.3l-4.7-8.4l-4.8,8.4
			H827.9z"/>
		<path class="st0" d="M843,140h-1.8v-14.3h3.1l13.1,12.5v-12.5h1.8V140h-2.4L843,127.2V140z"/>
		<path class="st0" d="M883.8,130.2c0-0.7-0.1-1.3-0.2-1.8c-0.2-0.4-0.4-0.8-0.8-1s-0.9-0.4-1.5-0.4c-0.6-0.1-1.4-0.1-2.2-0.1h-4.2
			c-0.8,0-1.5,0-2,0.1c-0.5,0-1,0.1-1.3,0.3s-0.6,0.3-0.8,0.6s-0.3,0.6-0.4,1.1c-0.1,0.4-0.1,1-0.1,1.6c0,0.6,0,1.4,0,2.3
			c0,0.9,0,1.7,0,2.3c0,0.6,0.1,1.2,0.2,1.6c0.1,0.4,0.2,0.8,0.4,1.1c0.2,0.3,0.5,0.5,0.8,0.6c0.4,0.1,0.8,0.2,1.3,0.3
			c0.5,0,1.2,0.1,2,0.1h4.2c0.7,0,1.3,0,1.8-0.1c0.5,0,0.9-0.1,1.3-0.2c0.4-0.1,0.6-0.2,0.9-0.4c0.2-0.2,0.4-0.4,0.5-0.7
			c0.1-0.3,0.2-0.6,0.2-0.9c0-0.4,0.1-0.8,0.1-1.3h1.8c0,0.6,0,1.1-0.1,1.6c-0.1,0.5-0.2,0.9-0.4,1.3c-0.2,0.4-0.4,0.7-0.8,1
			c-0.3,0.3-0.7,0.5-1.2,0.7c-0.5,0.2-1.1,0.3-1.7,0.4c-0.7,0.1-1.5,0.1-2.3,0.1h-4.2c-1.1,0-2-0.1-2.8-0.2
			c-0.7-0.1-1.4-0.3-1.8-0.6c-0.5-0.3-0.9-0.6-1.1-1c-0.3-0.4-0.5-0.9-0.6-1.4c-0.1-0.6-0.2-1.2-0.2-1.9c0-0.7,0-1.5,0-2.3
			c0-0.8,0-1.6,0-2.3c0-0.7,0.1-1.3,0.2-1.9c0.1-0.6,0.3-1,0.6-1.4c0.3-0.4,0.6-0.8,1.1-1c0.5-0.3,1.1-0.5,1.8-0.6
			c0.7-0.1,1.7-0.2,2.8-0.2h4.2c0.9,0,1.7,0,2.3,0.1c0.7,0.1,1.2,0.2,1.7,0.4c0.5,0.2,0.9,0.4,1.2,0.6c0.3,0.3,0.6,0.6,0.8,0.9
			c0.2,0.4,0.3,0.8,0.4,1.2c0.1,0.4,0.1,0.9,0.1,1.5H883.8z"/>
		<path class="st0" d="M894.7,140v-14.3H909v1.5h-12.5v4.8h11.9v1.5h-11.9v5.1H909v1.5H894.7z"/>
	</g>
	<g>
		<path class="st1" d="M391.2,87.8h-47.8l-8,14h-8.8l34.9-61.1h11l34.7,61.1h-8L391.2,87.8z M387.6,81.4l-20.2-35.7L347,81.4H387.6z
			"/>
		<path class="st1" d="M425.3,40.7h7.6v61.1h-7.6V40.7z"/>
		<path class="st1" d="M480.8,54.7c5.1,0,9.4,0.4,13,1.1c3.6,0.8,6.4,2.1,8.7,3.9c2.2,1.8,3.8,4.3,4.9,7.4c1,3.1,1.5,7,1.5,11.6
			s-0.5,8.5-1.5,11.6c-1,3.1-2.6,5.5-4.9,7.3c-2.2,1.8-5.1,3.1-8.7,3.9c-3.6,0.7-7.9,1.1-13,1.1c-3.6,0-6.7-0.2-9.1-0.6
			c-2.4-0.4-4.4-1-6-1.6s-2.7-1.3-3.5-2.1s-1.4-1.4-1.7-2.1v20.8h-7.6V56h7.6v4.3c0.3-0.5,0.9-1.1,1.7-1.8s2-1.3,3.5-1.8
			s3.5-1,6-1.4C474.1,54.9,477.2,54.7,480.8,54.7z M480.8,61.1c-2.5,0-4.8,0.1-6.8,0.2s-3.7,0.4-5.3,0.8c-1.5,0.4-2.8,1-3.8,1.8
			c-1,0.8-1.9,1.8-2.6,3.1s-1.1,2.9-1.5,4.8c-0.3,1.9-0.5,4.2-0.5,6.9c0,2.7,0.2,5,0.5,7c0.3,1.9,0.8,3.6,1.5,4.9s1.5,2.3,2.6,3.1
			c1,0.8,2.3,1.4,3.8,1.8c1.5,0.4,3.3,0.7,5.3,0.8s4.3,0.2,6.8,0.2c3,0,5.5-0.1,7.7-0.3c2.2-0.2,4-0.5,5.5-1c1.5-0.5,2.7-1.1,3.7-2
			c0.9-0.8,1.7-1.9,2.2-3.2c0.5-1.3,0.9-2.9,1-4.7c0.2-1.8,0.3-4,0.3-6.4c0-2.5-0.1-4.6-0.3-6.5c-0.2-1.8-0.5-3.4-1-4.7
			c-0.5-1.3-1.2-2.4-2.2-3.2c-0.9-0.8-2.2-1.5-3.7-2c-1.5-0.5-3.3-0.8-5.5-1C486.3,61.2,483.8,61.1,480.8,61.1z"/>
		<path class="st1" d="M551.5,102.7c-5.1,0-9.4-0.4-13-1.1c-3.6-0.7-6.4-1.9-8.7-3.6c-2.2-1.7-3.8-4-4.9-6.9
			c-1-2.9-1.5-6.5-1.5-10.9c0-5,0.5-9.2,1.5-12.4c1-3.3,2.6-5.9,4.9-7.8c2.2-1.9,5.1-3.3,8.7-4.1s7.9-1.2,13-1.2
			c3.6,0,6.8,0.3,9.4,0.8c2.7,0.5,4.9,1.3,6.8,2.3c1.9,1,3.4,2.2,4.6,3.7s2.1,2.9,2.8,4.5c0.7,1.6,1.1,3.4,1.4,5.5
			c0.3,2.1,0.4,4.4,0.4,6.7l-0.6,2.5h-45.2c0,3.4,0.3,6.2,1,8.4c0.7,2.2,1.8,3.8,3.4,4.8c1.6,1,3.7,1.7,6.3,1.9
			c2.6,0.3,5.8,0.4,9.6,0.4c3.5,0,6.4-0.1,8.7-0.3c2.3-0.2,4.1-0.5,5.5-1.1c1.4-0.5,2.3-1.3,2.8-2.2c0.5-0.9,0.8-2.2,0.8-3.7h7.6
			c0,2.5-0.4,4.6-1.3,6.3c-0.9,1.7-2.3,3.1-4.3,4.2s-4.6,1.9-7.9,2.3C560.3,102.4,556.3,102.7,551.5,102.7z M551.5,61.1
			c-2.5,0-4.8,0.1-6.8,0.2c-2,0.1-3.8,0.3-5.3,0.7s-2.8,0.9-3.8,1.6c-1.1,0.7-1.9,1.5-2.6,2.4c-0.6,0.9-1.1,2.2-1.4,3.9
			s-0.5,3.7-0.5,6h38.2c0-3.1-0.3-5.5-1-7.3s-1.7-3.2-3.1-4.4c-1.4-1.1-3.3-1.9-5.5-2.3C557.4,61.3,554.7,61.1,551.5,61.1z"/>
		<path class="st1" d="M611.5,80.8c-2.7-0.1-5.1-0.3-7.1-0.7c-2-0.3-3.6-0.8-4.9-1.4c-1.3-0.6-2.4-1.4-3.1-2.4
			c-0.8-1-1.3-2.3-1.6-3.8c-0.3-1.5-0.5-3.1-0.5-4.9c0-2.4,0.5-4.4,1.5-6c1-1.6,2.6-3,4.9-4s5.1-1.8,8.7-2.2c3.6-0.5,7.9-0.7,13-0.7
			c5,0,9.2,0.3,12.5,0.8c3.3,0.5,5.9,1.3,7.8,2.4c1.9,1.1,3.3,2.5,4,4.2c0.8,1.7,1.2,3.7,1.2,6h-7.6c0-1.4-0.3-2.6-0.8-3.5
			s-1.5-1.6-2.8-2.1c-1.4-0.5-3.2-0.9-5.5-1.1c-2.3-0.2-5.2-0.3-8.7-0.3c-3.8,0-7,0.1-9.6,0.2c-2.6,0.1-4.7,0.4-6.3,0.8
			c-1.6,0.4-2.7,1.1-3.4,1.9c-0.7,0.9-1,2.1-1,3.6c0,0.9,0.1,1.8,0.2,2.6s0.4,1.6,0.8,2.1c0.4,0.6,1,1,1.9,1.3s1.9,0.5,3.4,0.7
			c1.4,0.1,3.2,0.2,5.3,0.2s4.6,0,7.6,0c3.6,0,6.8,0.1,9.5,0.2c2.7,0.2,5.1,0.4,7.1,0.8s3.6,1,4.9,1.8c1.3,0.8,2.3,1.7,3.1,2.7
			s1.3,2.1,1.7,3.4c0.3,1.3,0.5,2.8,0.5,4.6c0,1.7-0.2,3.3-0.5,4.6s-0.9,2.6-1.7,3.6c-0.8,1-1.9,1.9-3.2,2.7
			c-1.4,0.8-3.1,1.4-5.2,1.8c-2.1,0.5-4.5,0.8-7.4,1s-6.2,0.3-10,0.3c-4.8,0-8.8-0.2-12-0.7c-3.2-0.5-5.9-1.2-7.9-2.3
			c-2-1-3.4-2.4-4.3-4.1c-0.9-1.7-1.3-3.7-1.3-6.1h7.6c0,1.6,0.3,2.9,0.8,3.9c0.5,1,1.5,1.8,2.8,2.3c1.4,0.6,3.2,0.9,5.5,1.1
			c2.3,0.2,5.2,0.3,8.7,0.3c3.2,0,5.9-0.1,8.1-0.2s4.1-0.4,5.6-0.7c1.5-0.3,2.7-0.7,3.6-1.2c0.9-0.5,1.5-1,2-1.6
			c0.5-0.6,0.7-1.3,0.9-2.1s0.2-1.7,0.2-2.6c0-0.9-0.1-1.7-0.2-2.3s-0.4-1.4-0.8-2c-0.4-0.7-1-1.2-1.9-1.5c-0.8-0.3-1.9-0.6-3.4-0.9
			s-3.2-0.4-5.3-0.5c-2.1-0.1-4.6-0.1-7.6-0.1C617.4,80.9,614.2,80.9,611.5,80.8z"/>
		<path class="st1" d="M740.8,39.4c4.7,0,8.6,0.3,11.8,0.9s5.8,1.4,7.9,2.6c2.1,1.2,3.7,2.6,4.8,4.4c1.1,1.8,1.9,3.8,2.4,6.2
			c0.5,2.4,0.8,5,0.9,8s0.1,6.3,0.1,9.9s0,6.9-0.1,9.9c-0.1,3-0.4,5.6-0.9,8c-0.5,2.4-1.3,4.4-2.4,6.2c-1.1,1.8-2.7,3.2-4.8,4.4
			c-2.1,1.2-4.7,2-7.9,2.6s-7.1,0.9-11.8,0.9h-23c-4.7,0-8.6-0.3-11.8-0.9s-5.8-1.4-7.9-2.6c-2.1-1.2-3.7-2.6-4.8-4.4
			c-1.1-1.8-1.9-3.8-2.5-6.2c-0.5-2.4-0.8-5-0.9-8c-0.1-3-0.1-6.3-0.1-9.9s0-6.9,0.1-9.9c0.1-3,0.4-5.6,0.9-8
			c0.5-2.4,1.3-4.4,2.5-6.2c1.1-1.8,2.7-3.2,4.8-4.4c2.1-1.2,4.7-2,7.9-2.6s7.1-0.9,11.8-0.9H740.8z M740.8,96.7
			c3.4,0,6.2-0.1,8.5-0.3c2.3-0.2,4.2-0.6,5.7-1.2s2.7-1.5,3.5-2.6c0.8-1.1,1.4-2.7,1.8-4.5c0.4-1.9,0.6-4.2,0.7-6.9
			c0.1-2.7,0.1-6,0.1-9.8c0-3.8,0-7.1-0.1-9.8c-0.1-2.7-0.3-5.1-0.7-6.9c-0.4-1.9-1-3.4-1.8-4.5c-0.8-1.1-2-2-3.5-2.6
			c-1.5-0.6-3.4-1-5.7-1.2c-2.3-0.2-5.2-0.3-8.6-0.3h-23c-3.4,0-6.3,0.1-8.6,0.3c-2.3,0.2-4.2,0.6-5.7,1.2c-1.5,0.6-2.7,1.5-3.5,2.6
			s-1.4,2.7-1.8,4.5c-0.4,1.9-0.6,4.2-0.6,6.9c-0.1,2.7-0.1,6-0.1,9.8c0,3.8,0,7.1,0.1,9.8c0.1,2.7,0.3,5.1,0.7,6.9
			c0.4,1.9,1,3.4,1.8,4.5c0.8,1.1,2,2,3.5,2.6s3.4,1,5.7,1.2c2.3,0.2,5.2,0.3,8.6,0.3H740.8z"/>
		<path class="st1" d="M831.9,101.8V76.3c0-2.8-0.2-5.2-0.6-7.2s-1.3-3.5-2.5-4.7c-1.3-1.2-3.1-2.1-5.4-2.6
			c-2.3-0.5-5.4-0.8-9.2-0.8c-4.1,0-7.5,0.3-10.2,0.9c-2.6,0.6-4.7,1.5-6.2,2.6s-2.6,2.5-3.1,4c-0.6,1.6-0.9,3.3-0.9,5.2v28h-7.6V56
			h7.6v7.6c0.6-1.3,1.4-2.4,2.4-3.4c1-0.9,2.2-1.7,3.5-2.4s2.7-1.2,4.2-1.6c1.5-0.4,3-0.7,4.5-1c1.5-0.2,3-0.4,4.4-0.5
			c1.4-0.1,2.7-0.1,3.9-0.1c3.4,0,6.3,0.2,8.8,0.6s4.5,1,6.2,1.9c1.7,0.8,3.1,1.8,4.1,3.1s1.8,2.6,2.4,4.2c0.6,1.6,0.9,3.4,1.1,5.4
			s0.3,4.1,0.3,6.5l0,25.5H831.9z"/>
		<path class="st1" d="M883.5,102.7c-5.1,0-9.4-0.4-13-1.1c-3.6-0.7-6.4-1.9-8.7-3.6c-2.2-1.7-3.8-4-4.9-6.9
			c-1-2.9-1.5-6.5-1.5-10.9c0-5,0.5-9.2,1.5-12.4c1-3.3,2.6-5.9,4.9-7.8c2.2-1.9,5.1-3.3,8.7-4.1c3.6-0.8,7.9-1.2,13-1.2
			c3.6,0,6.8,0.3,9.4,0.8s4.9,1.3,6.8,2.3c1.9,1,3.4,2.2,4.6,3.7c1.2,1.4,2.1,2.9,2.8,4.5s1.1,3.4,1.4,5.5c0.3,2.1,0.4,4.4,0.4,6.7
			l-0.6,2.5h-45.2c0,3.4,0.3,6.2,1,8.4c0.7,2.2,1.8,3.8,3.4,4.8c1.6,1,3.7,1.7,6.3,1.9s5.8,0.4,9.6,0.4c3.5,0,6.4-0.1,8.7-0.3
			c2.3-0.2,4.1-0.5,5.5-1.1c1.4-0.5,2.3-1.3,2.8-2.2c0.5-0.9,0.8-2.2,0.8-3.7h7.6c0,2.5-0.4,4.6-1.3,6.3c-0.9,1.7-2.3,3.1-4.3,4.2
			s-4.6,1.9-7.9,2.3C892.3,102.4,888.3,102.7,883.5,102.7z M883.5,61.1c-2.5,0-4.8,0.1-6.8,0.2c-2,0.1-3.8,0.3-5.3,0.7
			s-2.8,0.9-3.8,1.6c-1.1,0.7-1.9,1.5-2.6,2.4s-1.1,2.2-1.4,3.9s-0.5,3.7-0.5,6h38.2c0-3.1-0.3-5.5-1-7.3s-1.7-3.2-3.1-4.4
			c-1.4-1.1-3.3-1.9-5.5-2.3S886.7,61.1,883.5,61.1z"/>
	</g>
</g>
<g>
	<linearGradient id="SVGID_1_" gradientUnits="userSpaceOnUse" x1="84.7798" y1="41.2297" x2="-0.5379" y2="167.9839">
		<stop  offset="0" style="stop-color:#00AA55"/>
		<stop  offset="0.2104" style="stop-color:#08A452"/>
		<stop  offset="0.539" style="stop-color:#1E954A"/>
		<stop  offset="0.9429" style="stop-color:#427C3D"/>
		<stop  offset="1" style="stop-color:#48783B"/>
	</linearGradient>
	<path class="st2" d="M0,11.3l157,78.5L0.2,168.4L0,11.3z M19.9,133.3l87.4-43.8L19.8,45.7L19.9,133.3z"/>
	<linearGradient id="SVGID_2_" gradientUnits="userSpaceOnUse" x1="242.4254" y1="37.886" x2="223.2878" y2="159.481">
		<stop  offset="0" style="stop-color:#FFA528"/>
		<stop  offset="0.3881" style="stop-color:#F06A25"/>
		<stop  offset="1" style="stop-color:#D70521"/>
	</linearGradient>
	<path class="st3" d="M176.9,27.6l124.5,62.3L177,152.2L176.9,27.6z M193.4,127l73.6-36.9l-73.6-36.8L193.4,127z"/>
	<linearGradient id="SVGID_3_" gradientUnits="userSpaceOnUse" x1="154.1323" y1="42.8598" x2="86.1894" y2="188.9346">
		<stop  offset="0" style="stop-color:#168BF3"/>
		<stop  offset="1" style="stop-color:#00489D"/>
	</linearGradient>
	<path class="st4" d="M64.1,1l177.6,88.8L64.3,178.8L64.1,1z M87.6,142.1l105.1-52.7L87.5,36.8L87.6,142.1z"/>
</g>
</svg>
